<?xml version="1.0" encoding="UTF-8" standalone="no"?>
<!-- Created with Inkscape (http://www.inkscape.org/) -->

<svg
   xmlns:dc="http://purl.org/dc/elements/1.1/"
   xmlns:cc="http://creativecommons.org/ns#"
   xmlns:rdf="http://www.w3.org/1999/02/22-rdf-syntax-ns#"
   xmlns:svg="http://www.w3.org/2000/svg"
   xmlns="http://www.w3.org/2000/svg"
   xmlns:sodipodi="http://sodipodi.sourceforge.net/DTD/sodipodi-0.dtd"
   xmlns:inkscape="http://www.inkscape.org/namespaces/inkscape"
   width="300mm"
   height="250mm"
   viewBox="0 0 300 250"
   id="svg12765"
   version="1.1"
   inkscape:version="0.91+devel r13769"
   sodipodi:docname="hair.svg">
  <defs
     id="defs12767" />
  <sodipodi:namedview
     id="base"
     pagecolor="#ffffff"
     bordercolor="#666666"
     borderopacity="1.0"
     inkscape:pageopacity="0.0"
     inkscape:pageshadow="2"
     inkscape:zoom="0.24748737"
     inkscape:cx="439.51362"
     inkscape:cy="370.04298"
     inkscape:document-units="mm"
     inkscape:current-layer="layer1"
     showgrid="false"
     inkscape:window-width="954"
     inkscape:window-height="1036"
     inkscape:window-x="960"
     inkscape:window-y="18"
     inkscape:window-maximized="0"
     fit-margin-top="0"
     fit-margin-left="0"
     fit-margin-right="0"
     fit-margin-bottom="0" />
  <metadata
     id="metadata12770">
    <rdf:RDF>
      <cc:Work
         rdf:about="">
        <dc:format>image/svg+xml</dc:format>
        <dc:type
           rdf:resource="http://purl.org/dc/dcmitype/StillImage" />
        <dc:title></dc:title>
      </cc:Work>
    </rdf:RDF>
  </metadata>
  <g
     inkscape:label="Layer 1"
     inkscape:groupmode="layer"
     id="layer1"
     transform="translate(-46.342441,44.248505)">
    <path
       style="display:inline;opacity:1;fill:#73a6f6;fill-opacity:1;fill-rule:evenodd;stroke:none;stroke-width:3.82891512;stroke-linecap:butt;stroke-linejoin:miter;stroke-miterlimit:10;stroke-dasharray:none;stroke-dashoffset:0;stroke-opacity:1;marker:none;paint-order:normal;enable-background:new"
       clip-path="none"
       d="m 114.22319,-16.1061 c -3.94023,3.42629 -8.5724,6.3481503 -13.46172,9.1126613 -2.41441,1.36515 -4.89507,2.69555 -7.38431,4.02457 -3.18831,18.3385707 -2.66453,33.9922307 0.649,47.4499207 5.13208,20.843381 16.92495,36.538755 32.32466,48.971495 29.13583,23.522413 71.07481,35.038953 103.74636,46.078223 -5.55298,-7.67794 -10.38773,-13.23684 -15.77674,-17.97898 l -12.57578,-11.06657 14.74834,7.94379 c 13.59312,7.32141 30.41168,17.572 43.24085,28.73686 6.41458,5.58243 11.84154,11.38769 15.3627,17.28447 2.8647,4.79743 4.4482,9.74183 4.08541,14.57421 7.80879,-2.79239 10.92184,-6.3961 11.99901,-10.9805 1.20372,-5.12303 -0.40228,-12.04324 -2.62764,-20.2925 l -2.50942,-9.30309 5.87559,7.63708 c 4.03299,5.24234 7.4913,10.70126 10.50216,16.32383 5.52694,-8.14916 7.58754,-14.23266 6.95693,-19.54903 -0.69504,-5.85948 -4.69921,-11.38609 -12.04106,-18.20205 l -5.46008,-5.06881 7.2275,1.80898 c 6.26105,1.56694 11.64607,3.81494 16.78487,7.06278 -0.21725,-7.60586 -1.48832,-16.79106 -3.68721,-25.41621 -3.56346,-3.537483 -7.38208,-7.116033 -11.38909,-10.543723 -0.46209,-0.39658 -1.62596,-1.37268 -1.62596,-1.37268 -3.32531,-2.77453 -6.76654,-5.43072 -10.28401,-7.86018 -8.8625,-6.12119 -15.14551,-14.567127 -17.65596,-23.999975 -7.71019,-2.778062 -15.77875,-4.248251 -24.64899,-4.88033 -20.10056,-1.432329 -44.29843,1.58522 -76.94461,3.783158 l -4.15268,0.27999 2.49012,-3.33502 c 0.71295,-0.954878 1.56046,-2.123268 2.34816,-3.28554 C 150.96806,44.272942 134.71398,32.706692 124.73228,17.097572 118.59059,7.4932203 114.86634,-3.6201087 114.22319,-16.1061 Z"
       id="path9081-7-3"
       inkscape:connector-curvature="0"
       sodipodi:nodetypes="cscsscccssscsccccscccccccscsccccsc" />
    <path
       style="display:inline;fill:none;fill-opacity:1;stroke:#ff0000;stroke-width:2;stroke-miterlimit:6;stroke-dasharray:none;stroke-opacity:1;enable-background:new"
       d="m 100.00589,-19.0061 c 6.55615,101.971397 72.20102,101.906067 133.07335,120.08867 33.38029,9.97072 65.32546,25.42868 85.30502,66.20837"
       id="path7030-0"
       inkscape:connector-curvature="0"
       sodipodi:nodetypes="csc" />
  </g>
</svg>
